<svg aria-labelledby="simpleicons-lastfm-icon" role="img" viewBox="0 0 24 24" xmlns="http://www.w3.org/2000/svg"><title id="simpleicons-lastfm-icon">Last.fm icon</title><path d="M10.584 17.21l-.88-2.392s-1.43 1.594-3.573 1.594c-1.897 0-3.244-1.649-3.244-4.288 0-3.382 1.704-4.591 3.381-4.591 2.419 0 3.188 1.567 3.849 3.574l.88 2.749c.88 2.666 2.529 4.81 7.285 4.81 3.409 0 5.718-1.044 5.718-3.793 0-2.227-1.265-3.381-3.629-3.931l-1.76-.385c-1.209-.275-1.566-.77-1.566-1.594 0-.935.742-1.484 1.952-1.484 1.319 0 2.034.495 2.144 1.677l2.749-.33c-.22-2.474-1.924-3.492-4.729-3.492-2.474 0-4.893.935-4.893 3.931 0 1.87.907 3.052 3.188 3.602l1.87.439c1.402.33 1.869.907 1.869 1.704 0 1.017-.989 1.43-2.86 1.43-2.776 0-3.93-1.457-4.591-3.464l-.907-2.749c-1.155-3.574-2.997-4.893-6.653-4.893C2.144 5.333 0 7.89 0 12.233c0 4.18 2.144 6.434 5.993 6.434 3.106 0 4.591-1.457 4.591-1.457z"/></svg>
